<svg xmlns="http://www.w3.org/2000/svg" viewBox="0 0 313.4 86.3"><defs><style>.a{fill:#fff;}.b{fill:#44a1d1;}</style></defs><title>Безымянный-1</title><polygon class="a" points="223.9 0 257.3 43.5 223.9 86.3 246.1 86.3 279.8 43.5 246.1 0 223.9 0"/><polygon class="b" points="313.4 0 290.6 0 271.6 25.2 282.7 39.5 313.4 0"/><polygon class="b" points="313.4 86.3 290.6 86.3 271.6 61.1 282.7 46.8 313.4 86.3"/><path class="a" d="M699.1,415.6V353.5h43.1v14.6H714.8v9.7H740v13.6H714.8v9.2h27.4v14.9H699.1Zm-63,0V353.5h15.7l13.1,30.4,13.2-30.4h15.7v62.1H678l.5-30.5-8.2,21.3H659.6l-8.3-21.3.6,30.5ZM598,389.2h9.3L603,371h-.5Zm-24.2,26.4,21.7-62.1h14.3L632,415.6H615.1l-4-12.5H594.5l-3.9,12.5ZM527.1,395V373.7a19.79,19.79,0,0,1,2.1-9.2,19,19,0,0,1,5.6-6.6,25.94,25.94,0,0,1,7.8-3.9,30.15,30.15,0,0,1,9-1.3,25.64,25.64,0,0,1,6.2.7,29.08,29.08,0,0,1,6,2.2,19.32,19.32,0,0,1,5.4,4.1,23.55,23.55,0,0,1,4,6.2l-13.1,6a8.66,8.66,0,0,0-7.6-5.3h-.6a13.2,13.2,0,0,0-3.9.6,8.5,8.5,0,0,0-3.7,2.4,6.1,6.1,0,0,0-1.5,4.1V395a6.83,6.83,0,0,0,1.3,4,7.76,7.76,0,0,0,3.4,2.5,12.32,12.32,0,0,0,4.4.7,10.76,10.76,0,0,0,4.4-.8,8.14,8.14,0,0,0,3.4-2.4,6,6,0,0,0,1.3-4v-2.3h-9.9V379.5h25V395a22.3,22.3,0,0,1-2,9.4,19.43,19.43,0,0,1-5.5,6.8,26.17,26.17,0,0,1-7.8,4,30.39,30.39,0,0,1-9.1,1.4,29.73,29.73,0,0,1-9-1.4,24,24,0,0,1-7.8-4,18.81,18.81,0,0,1-5.6-6.8A19.47,19.47,0,0,1,527.1,395Z" transform="translate(-527.1 -341.4)"/></svg>